<svg id="Capa_2" data-name="Capa 2" xmlns="http://www.w3.org/2000/svg" viewBox="0 0 70 70"><defs><style>.cls-1{fill:#fff;}</style></defs><title>gob</title><path class="cls-1" d="M12.57,8.54a2,2,0,0,0,1.17.18.91.91,0,0,0,.48-.27s.08-.13.16-.13a.93.93,0,0,0,.6,1,.44.44,0,0,0,0,.1.86.86,0,0,0,.75.75.3.3,0,0,0-.08.46,2.19,2.19,0,0,1,1.43,0,.29.29,0,0,0,.1-.4c-.06-.11-.2-.12-.14-.13.77-.18,1.17-1.3,1.15-1.73a1.51,1.51,0,0,0,1.91-.07,1.37,1.37,0,0,0-.09-2,1.24,1.24,0,0,0-1.4,0A.75.75,0,0,0,18,5.94a1.42,1.42,0,0,0-.28-.9,1.46,1.46,0,0,0-1.85,0,1.3,1.3,0,0,0-1.72,1.37,2.11,2.11,0,0,0-1.13-.19,1.31,1.31,0,0,0-.76.43,1.78,1.78,0,0,0-.17.27,1.3,1.3,0,0,0-.13.65A1.18,1.18,0,0,0,12.57,8.54Z"/><path class="cls-1" d="M19.46,11.57a.21.21,0,0,0,.06-.17.17.17,0,0,0-.08-.12c-.15-.11-.5-.32-.5-.32l0,0h0a.25.25,0,0,0-.11.05.85.85,0,0,1-.58.22l-.18,0a1.78,1.78,0,0,1-.43-.16,2.15,2.15,0,0,0-.25-.11h0a2.41,2.41,0,0,0-.93-.2,2.47,2.47,0,0,0-.93.2h0l-.11.05-.27.13a1.14,1.14,0,0,1-.3.09l-.17,0A.85.85,0,0,1,14,11a.25.25,0,0,0-.11-.05h-.05l-.5.32a.2.2,0,0,0-.09.13.21.21,0,0,0,.06.17A2.44,2.44,0,0,1,13.86,13a2.15,2.15,0,0,1-.36,1.28A1.5,1.5,0,0,0,15,16.56c.09,0,.89,0,1.16.52,0,0,.14.22.19.32l.06.13.07-.13.19-.33c.27-.5,1.07-.51,1.16-.51a1.5,1.5,0,0,0,1.47-2.27A2.16,2.16,0,0,1,18.91,13,2.4,2.4,0,0,1,19.46,11.57ZM18.5,13l-1.4,1,.54,1.57-1.34-1-1.33,1L15.5,14l-1.4-1h1.72l.48-1.6.48,1.6Z"/><path class="cls-1" d="M27.59,19.51a.69.69,0,0,0-.43-.94.61.61,0,0,0-.51.05h0l-.05,0a.35.35,0,0,0-.1.25.36.36,0,0,0,.35.36.38.38,0,0,0,.21-.07.34.34,0,0,0,.14-.21.39.39,0,0,1,.13.17c.2.63-.51.85-.51.85a2.8,2.8,0,0,1-2.53-.33l.28-.15a.65.65,0,0,1,.25-.06.09.09,0,0,0,0,.05.31.31,0,0,0,.62,0,.28.28,0,0,0-.06-.19c-.18-.28-.82-.09-.82-.09a1.19,1.19,0,0,0,0-.9.86.86,0,0,0-1-.41.44.44,0,0,0-.29.29c-.09.47.3.51.3.51.29,0,.29-.21.29-.21,0-.22-.28-.23-.28-.23.27-.47,1.1.29.55,1a.07.07,0,0,1-.1,0,10.66,10.66,0,0,1-1.7-1c0-.26-.26-.4-.21-.47s.17.05.25-.06a6.8,6.8,0,0,0,.14-.76,2.75,2.75,0,0,0,1.75.22.19.19,0,0,0,.14-.19c0-.33-.84-2.27-.86-3,.4.2.65-.42.72-.61.54.25.73,5.26,1.15,5.43.21.09.29-.25.31-.32a16.54,16.54,0,0,0,.65-5.14A14.05,14.05,0,0,0,26,10.34c-.17-.58-.5-1.76-1.26-1.92a.55.55,0,0,0-.63.56c0,.26.19.38.11.64a2.11,2.11,0,0,0-.24.53c-.05.19.12.27.07.46-.25,0-.37.18-.75.08.25-.11.25-.82-.05-.94-.05,0-.1,0-.11-.07a.93.93,0,0,0,.15-.2,1,1,0,0,0,0-.91c.12,0,.25-.23.27-.41h0a1.17,1.17,0,0,1,.07-.37.09.09,0,0,0,0-.12.1.1,0,0,0-.13,0c-.07.16-.25.07-.18-.08a.1.1,0,0,0,0-.13.08.08,0,0,0-.12,0c-.08.15-.25.06-.18-.09a.1.1,0,0,0,0-.13.09.09,0,0,0-.12,0c-.08.16-.26.07-.18-.09a.09.09,0,0,0-.05-.12.09.09,0,0,0-.12,0,.7.7,0,0,1-.22.3c-.17,0-.12.23-.1.36a.46.46,0,0,0-.57.39h0c-.27,0-.52.14-.5.38a.42.42,0,0,0,.23.31s0-.14.13-.15a.35.35,0,0,1,.33.22c0,.13-.08.45.34.5a1.13,1.13,0,0,1,0,.14,1.29,1.29,0,0,0-.34,0c-.27,0-.64.2-.73.46a.47.47,0,0,0,0,.21s.06.12.05.19a.5.5,0,0,1-.08.12.87.87,0,0,1-.51.24.62.62,0,0,1-.48-.23c-.28-.37.08-1,.07-1.23,0-.63-.81-.26-1.12-.1a3.19,3.19,0,0,0-.92.83,2.71,2.71,0,0,0-.37.56s0,0-.08,0a1.94,1.94,0,0,0,.67.18,1.07,1.07,0,0,0,.75-.2.16.16,0,0,1,.11,0,.21.21,0,0,1,.12.05l.09.08.1.08.05,0,.17.13,0,0,.18.14.16.12h0s0,0,0,0a.13.13,0,0,1,0,.08l-.09.1a3.29,3.29,0,0,0-.41.72.94.94,0,0,0,.75.56.39.39,0,0,0,.44-.32s0,0,0,0,.2.81.4,1c-.19.09-.49.4-.33,1.24a7.08,7.08,0,0,1-.59-.5.91.91,0,0,0-.73-.62,3.61,3.61,0,0,0,.33.71,2,2,0,0,1,.2,1.14c.2-.2.16-.76.16-.76l.05,0s.24.38.58.47a4.37,4.37,0,0,0,1.44,1.55c0,.19,0,.63-.11.63-.38.09-.73-.17-1.07-.16l-.06,0c-1.45-.7-3.36.8-3.68,1.09-.17.15-.36-.06-.36-.06a.48.48,0,0,0-.42-.19.47.47,0,0,0-.41.19s-.19.21-.36.06-2-1.62-3.45-1.16c0-.08-.2-.12-.25-.14a1.77,1.77,0,0,1-.28-.15,1.87,1.87,0,0,0-.58-.05.65.65,0,0,1-.23-.09,2.14,2.14,0,0,1-.63-.51l-.09-.13a.76.76,0,0,1-.16-.3,2.1,2.1,0,0,1,.08-.86c0-.21,0-.22.05-.45a2.64,2.64,0,0,0,1.47-1.34l.08-.14h.12c.36,0,.61-.2,1-.15,0,0,0,.18.31.29a1.43,1.43,0,0,0,.12.67l.07.09a2.76,2.76,0,0,0,.22-.93.1.1,0,0,1,0-.08.85.85,0,0,0-.48-.67,1.51,1.51,0,0,1-.29-.13,1.17,1.17,0,0,1-.39-.38l.1-.1a2.23,2.23,0,0,0,.47-1.08c.19-.26.72-.16.93-.12a.3.3,0,0,1,.18.06c.06,0,.07.13.15.16a.53.53,0,0,0,.28,0,.61.61,0,0,1,.09.16.58.58,0,0,0,.08.1,1.92,1.92,0,0,0,.72-.21l0,0a1,1,0,0,0-.44-.33c-.2,0-.24-.21-.43-.24a.65.65,0,0,0-.28,0A5,5,0,0,1,13,10c-.38,0-.39.23-.52.45a1.3,1.3,0,0,1-.18.23c-.1.1-.22.1-.35.2l-.05-.16a1.65,1.65,0,0,0-.17-.39,1.33,1.33,0,0,0-.89-.67.48.48,0,0,1-.16-.09.08.08,0,0,1,0-.13c.13-.07.36-.05.5-.12.36-.16.23-.47.09-.49a3.53,3.53,0,0,1-.57-.16c-.09-.06-.24-.33-.38-.4s-.11-.3-.25-.36a.45.45,0,0,0-.26.08c0-.06,0-.35-.21-.45s-.16,0-.16.11.18.15.21.43l-.08.05a.59.59,0,0,0-.2-.36c-.12-.07-.16,0-.15.11s.15.14.2.37l-.1.09c-.25-.07-.31-.23-.37-.24s-.18,0-.13.15.25.19.36.23a.27.27,0,0,0-.07.08c-.28-.06-.35-.24-.41-.26s-.18,0-.13.15A.65.65,0,0,0,9,8.65a.37.37,0,0,0-.06.2c-.22,0-.61.09-.53.35.07.05.33-.16.56,0s.41.25.47.3.1.19.14.3a2.77,2.77,0,0,0,.34.57,6.42,6.42,0,0,0,.42.6.42.42,0,0,1,0,.17,5.3,5.3,0,0,1-.84.74c-.2.19-2.08,1.62-2.31,2.24a1.17,1.17,0,0,0-.08.51c-.11.06-.37.16-.45,0s.14-.35.08-.54A.15.15,0,0,0,6.59,14a.64.64,0,0,0,.07,1.07c.33.13.37-.22.63-.08.06,0,.65.57.55,1a.42.42,0,0,1,0,.1c-.13.16-.35.29-.5.44-.31.2.3,1.43.25,2.07,0,.24.2.21.34.59a.42.42,0,0,0-.36.15.28.28,0,0,0-.06.19.31.31,0,0,0,.31.31.31.31,0,0,0,.31-.31.09.09,0,0,0,0-.05.65.65,0,0,1,.25.06l.28.15A2.8,2.8,0,0,1,6.08,20s-.71-.22-.51-.85A.31.31,0,0,1,5.7,19a.34.34,0,0,0,.14.21.38.38,0,0,0,.21.07.36.36,0,0,0,.35-.36.39.39,0,0,0-.1-.25l0,0h0a.57.57,0,0,0-.51-.06.69.69,0,0,0-.43.94s-.47-.11-.64.1a.3.3,0,0,0-.06.18h0a.65.65,0,0,0,.05.15.27.27,0,0,0,.43,0h0s.08-.06.16,0c1,1.08,2.74.64,3.67-.09A6,6,0,0,1,10,19.06c.22.09.46.17.69.25a2.34,2.34,0,0,0,.43,1.38.5.5,0,0,1-.71.22.37.37,0,0,1,0-.56s.19-.16.27,0a.18.18,0,0,0-.17.18.18.18,0,0,0,.18.18.18.18,0,0,0,.18-.17.46.46,0,0,0-.15-.4.47.47,0,0,0-.41-.11c-.39.06-.62.89.16,1.23,0,0,.61.28.93-.18,0,0,0-.06.11.05a2.44,2.44,0,0,0,2.67,0l.3-.17a.46.46,0,0,0,.45.44.45.45,0,0,0,.45-.45.44.44,0,0,0-.37-.44.87.87,0,0,0-.71.17,3.68,3.68,0,0,1-.42.23,2.46,2.46,0,0,0,.3-.89c.63.07,1.28.12,2,.13a1.88,1.88,0,0,1-.11.62s-.23.09-.24.26c0,0,0,.12.18.29a1,1,0,0,1,.2.3s0,.19.27.19h.09c.26,0,.27-.19.27-.19a1,1,0,0,1,.2-.3c.21-.17.18-.29.18-.29,0-.17-.24-.26-.24-.26a1.66,1.66,0,0,1-.11-.62c.67,0,1.31-.06,1.94-.13A2.66,2.66,0,0,0,19,21a3.68,3.68,0,0,1-.42-.23.87.87,0,0,0-.71-.17.43.43,0,0,0-.37.44.45.45,0,1,0,.89,0l.31.17a2.44,2.44,0,0,0,2.67,0c.12-.11.11-.05.11-.05.32.46.93.18.93.18.78-.34.55-1.17.16-1.23a.47.47,0,0,0-.41.11.46.46,0,0,0-.15.4.17.17,0,0,0,.18.17.18.18,0,0,0,.18-.18.18.18,0,0,0-.17-.18c.08-.2.27,0,.27,0a.37.37,0,0,1-.05.56.52.52,0,0,1-.72-.22,2.2,2.2,0,0,0,.43-1.38c.24-.08.48-.15.71-.25A5.5,5.5,0,0,1,24,19.9c.94.73,2.64,1.17,3.68.09.08-.09.14,0,.15,0h0a.27.27,0,0,0,.43,0,.65.65,0,0,0,.05-.15h0a.3.3,0,0,0-.06-.18C28.06,19.4,27.59,19.51,27.59,19.51ZM8.84,19.29a.08.08,0,0,1-.11,0c-.54-.68.29-1.44.56-1,0,0-.32,0-.28.23,0,0,0,.23.29.21,0,0,.39,0,.3-.51a.44.44,0,0,0-.29-.29.86.86,0,0,0-1,.41,1.24,1.24,0,0,0-.07.37A.6.6,0,0,0,8,18.58a3.3,3.3,0,0,1-.21-1.8A1.81,1.81,0,0,0,9.2,15.44a.59.59,0,0,1,.35.43c0,.14-.05.29,0,.4a2.18,2.18,0,0,0,.56.44,11,11,0,0,0,.93.66c.11,0,.18-.06.27,0s.06,0,.09.05l.13.11a7.17,7.17,0,0,0-.81.64A7,7,0,0,1,8.84,19.29Zm2.59.75a1.2,1.2,0,0,1-.12.35,2.31,2.31,0,0,1-.25-.95l.53.17A2.41,2.41,0,0,0,11.43,20Zm2.07,1a1.82,1.82,0,0,1-1.86-.35,4,4,0,0,1,.26-1,18.47,18.47,0,0,0,1.91.36C13.77,20.46,13.67,21,13.5,21Zm-1.09-2.14a1.29,1.29,0,0,1,.85-.35s.49,0,.58.61C13.31,19.06,12.82,19,12.41,18.88Zm1.1-.7a2.49,2.49,0,0,0-1.38.63c-.33-.08-.63-.16-.87-.24a2,2,0,0,1,.17-.27A2.29,2.29,0,0,1,14,17.8S14,18.08,13.51,18.18Zm.76,1c.08-.67.12-1.23.37-1.23a.42.42,0,0,1,.29.17c.21.29.78.64,1,1.17C15.36,19.29,14.79,19.26,14.27,19.2Zm2.65.11c.26-.53.83-.88,1-1.17a.42.42,0,0,1,.29-.17c.25,0,.29.56.36,1.23C18.1,19.26,17.53,19.29,16.92,19.31Zm1.93-1.51a2.27,2.27,0,0,1,2.6.5,1.41,1.41,0,0,1,.18.27c-.24.08-.54.16-.87.24a2.49,2.49,0,0,0-1.38-.63C18.92,18.08,18.81,17.81,18.85,17.8Zm.78.73a1.29,1.29,0,0,1,.85.35,13.77,13.77,0,0,1-1.43.26C19.14,18.52,19.63,18.53,19.63,18.53ZM19.39,21c-.17,0-.27-.56-.31-1A16.15,16.15,0,0,0,21,19.68a4,4,0,0,1,.26,1A1.82,1.82,0,0,1,19.39,21Zm2.18-.63a1.61,1.61,0,0,1-.12-.35,2.41,2.41,0,0,0-.15-.43l.52-.17A2.15,2.15,0,0,1,21.57,20.39Z"/><path class="cls-1" d="M70,1.19V0H0V70H70V1.19ZM1.19,68.81V1.19H31V68.81Zm31,0V1.19H68.81V68.81Z"/><path class="cls-1" d="M37.36,12.11a4.37,4.37,0,0,0,1.94-.48V9.37H37.6l0,.74h.72v1a2.14,2.14,0,0,1-.91.19c-.87,0-1.32-.67-1.32-1.89,0-1,.42-1.74,1.35-1.74A2.34,2.34,0,0,1,38.76,8l.43-.76a2.91,2.91,0,0,0-1.71-.46c-1.62,0-2.4,1.07-2.4,2.64S35.81,12.11,37.36,12.11Z"/><path class="cls-1" d="M41.72,12.11c1.13,0,1.77-.69,1.77-2a1.77,1.77,0,1,0-3.53,0C40,11.43,40.6,12.11,41.72,12.11Zm0-3.19c.47,0,.74.32.74,1.22s-.24,1.23-.74,1.23S41,11,41,10.14,41.26,8.92,41.72,8.92Z"/><path class="cls-1" d="M45,11.58a1.24,1.24,0,0,0,1.09.53c.87,0,1.64-.67,1.64-2s-.63-2-1.52-2a1.34,1.34,0,0,0-1,.46l.07-.6V6.73h-1V12h.53Zm.28-2.35a1.06,1.06,0,0,1,.7-.3c.46,0,.75.31.75,1.21s-.33,1.23-.76,1.23a1,1,0,0,1-.69-.38Z"/><rect class="cls-1" x="48.73" y="6.73" width="1.01" height="0.91"/><polygon class="cls-1" points="48.76 12.03 49.76 12.03 49.76 8.27 48.33 8.27 48.33 8.91 48.76 9.01 48.76 12.03"/><path class="cls-1" d="M52.38,12.11a3,3,0,0,0,1.41-.38L53.6,11a2.6,2.6,0,0,1-1.1.32.85.85,0,0,1-1-.93h2.33V10c0-.94-.45-1.79-1.59-1.79s-1.76.79-1.76,2A1.75,1.75,0,0,0,52.38,12.11Zm-.15-3.18c.53,0,.68.41.68.9H51.54C51.54,9.38,51.73,8.93,52.23,8.93Z"/><path class="cls-1" d="M56.77,9.11c0-.29,0-.57,0-.86a1.86,1.86,0,0,0-.43-.05,1,1,0,0,0-.9.58h0c0-.17-.07-.33-.11-.51h-.7V12h1V9.3A1.09,1.09,0,0,1,56.3,9,1.66,1.66,0,0,1,56.77,9.11Z"/><path class="cls-1" d="M58.37,9.19A1.19,1.19,0,0,1,59,9c.46,0,.68.27.68.84V12h1V9.7c0-.95-.38-1.51-1.33-1.51a1.58,1.58,0,0,0-1.19.51l-.15-.43h-.69V12h1Z"/><path class="cls-1" d="M63.17,8.19a1.75,1.75,0,0,0-1.77,2c0,1.29.64,2,1.77,2s1.76-.69,1.76-2A1.75,1.75,0,0,0,63.17,8.19Zm0,3.18c-.5,0-.73-.35-.73-1.23s.26-1.22.73-1.22.73.32.73,1.22S63.66,11.37,63.17,11.37Z"/><path class="cls-1" d="M38.54,13.56h-1V14.7a2.4,2.4,0,0,0,.09.69,1.23,1.23,0,0,0-.94-.37c-.91,0-1.62.71-1.62,2s.69,2,1.54,2a1.24,1.24,0,0,0,1-.5l.11.42h.82Zm-1,4.32a1,1,0,0,1-.7.33c-.48,0-.76-.34-.76-1.24s.3-1.2.77-1.2a1.29,1.29,0,0,1,.69.19Z"/><path class="cls-1" d="M42.38,17.85a2.61,2.61,0,0,1-1.1.33.86.86,0,0,1-1-.93h2.34v-.44c0-.95-.46-1.79-1.59-1.79S39.3,15.81,39.3,17a1.75,1.75,0,0,0,1.86,2,3,3,0,0,0,1.41-.38ZM41,15.76c.52,0,.68.41.68.9H40.31C40.31,16.21,40.51,15.76,41,15.76Z"/><path class="cls-1" d="M49,18.38l-.32-.8a2.43,2.43,0,0,1-1.37.47c-.84,0-1.28-.63-1.28-1.83s.44-1.78,1.3-1.78a2.23,2.23,0,0,1,1.27.36L49,14a3.19,3.19,0,0,0-1.76-.44c-1.47,0-2.24,1.07-2.24,2.67s.78,2.71,2.24,2.71A3,3,0,0,0,49,18.38Z"/><path class="cls-1" d="M51.67,15a1.3,1.3,0,0,0-1.07.51,2.48,2.48,0,0,0,.1-.58V13.56h-1v5.3h1V16a1.16,1.16,0,0,1,.66-.23.56.56,0,0,1,.62.6.39.39,0,0,1,.05.23v2.24h1V16.53C53.06,15.58,52.75,15,51.67,15Z"/><polygon class="cls-1" points="53.75 15.74 54.18 15.83 54.18 18.86 55.18 18.86 55.18 15.1 53.75 15.1 53.75 15.74"/><rect class="cls-1" x="54.15" y="13.56" width="1.01" height="0.91"/><path class="cls-1" d="M57.08,17.81V13.56h-1v4.3c0,.67.28,1.08,1,1.08a2.75,2.75,0,0,0,.55-.07v-.7C57.27,18.17,57.08,18.12,57.08,17.81Z"/><path class="cls-1" d="M60,15c-1.2,0-1.75.79-1.75,1.95a1.75,1.75,0,0,0,1.85,2,3,3,0,0,0,1.42-.38l-.19-.71a2.61,2.61,0,0,1-1.1.33.86.86,0,0,1-1-.93h2.33v-.44C61.54,15.86,61.09,15,60,15Zm-.74,1.64c0-.45.2-.9.7-.9s.68.41.68.9Z"/><path class="cls-1" d="M37,62.74a1.15,1.15,0,0,0-.8-.31c-.69,0-1.23.54-1.23,1.48s.52,1.49,1.16,1.49A.94.94,0,0,0,36.9,65v.24a.61.61,0,0,1-.69.66,1.71,1.71,0,0,1-.89-.29l-.19.58a2.17,2.17,0,0,0,1.13.31,1.24,1.24,0,0,0,1.38-1.27V62.49h-.49Zm-.15,1.86a.74.74,0,0,1-.54.25c-.35,0-.57-.26-.57-.94s.24-.91.6-.91a.78.78,0,0,1,.51.17Z"/><path class="cls-1" d="M39.55,62.43a1.32,1.32,0,0,0-1.34,1.48c0,1,.48,1.49,1.34,1.49s1.34-.52,1.34-1.49A1.33,1.33,0,0,0,39.55,62.43Zm0,2.41c-.37,0-.55-.27-.55-.93s.19-.93.55-.93.56.24.56.93S39.92,64.84,39.55,64.84Z"/><path class="cls-1" d="M42.93,62.43a1,1,0,0,0-.76.35l0-.46v-1h-.76v4h.41L42,65a.93.93,0,0,0,.83.4c.66,0,1.24-.5,1.24-1.49S43.6,62.43,42.93,62.43Zm-.19,2.41a.69.69,0,0,1-.52-.29V63.21a.85.85,0,0,1,.53-.22c.35,0,.57.24.57.92S43.07,64.84,42.74,64.84Z"/><rect class="cls-1" x="44.57" y="64.52" width="0.77" height="0.82"/><path class="cls-1" d="M47.3,64.83c-.41,0-.65-.27-.65-.92s.25-.91.64-.91a1.43,1.43,0,0,1,.72.18l.2-.52a1.9,1.9,0,0,0-1-.23,1.31,1.31,0,0,0-1.36,1.48c0,1,.51,1.49,1.37,1.49a2.22,2.22,0,0,0,1-.25l-.14-.54A1.75,1.75,0,0,1,47.3,64.83Z"/><path class="cls-1" d="M49.48,64.55V61.32h-.75v3.27c0,.5.21.81.8.81a2.93,2.93,0,0,0,.42,0v-.54C49.63,64.82,49.48,64.78,49.48,64.55Z"/></svg>