<svg id="Capa_2" data-name="Capa 2" xmlns="http://www.w3.org/2000/svg" viewBox="0 0 76.75 70"><defs><style>.cls-1{fill:#fff;}</style></defs><title>mh</title><path class="cls-1" d="M36.46,64.14h.46v.61a1.5,1.5,0,0,1-.58.11c-.56,0-.84-.42-.84-1.2s.27-1.11.86-1.11a1.53,1.53,0,0,1,.81.21l.27-.48a1.86,1.86,0,0,0-1.09-.3c-1,0-1.53.68-1.53,1.69s.47,1.74,1.45,1.74a2.78,2.78,0,0,0,1.24-.3V63.66H36.43Z"/><path class="cls-1" d="M39.06,62.91a1.12,1.12,0,0,0-1.13,1.25c0,.82.41,1.25,1.13,1.25s1.12-.44,1.12-1.25A1.12,1.12,0,0,0,39.06,62.91Zm0,2c-.32,0-.47-.22-.47-.78s.17-.78.47-.78.47.2.47.78S39.37,64.94,39.06,64.94Z"/><path class="cls-1" d="M41.89,62.91a.83.83,0,0,0-.63.3l0-.39V62h-.64v3.38H41l.12-.29a.77.77,0,0,0,.69.34c.56,0,1-.43,1-1.25S42.46,62.91,41.89,62.91Zm-.15,2a.59.59,0,0,1-.44-.24V63.57a.73.73,0,0,1,.45-.19c.29,0,.47.2.47.78S42,64.94,41.74,64.94Z"/><polygon class="cls-1" points="43.27 63.37 43.54 63.43 43.54 65.36 44.18 65.36 44.18 62.96 43.27 62.96 43.27 63.37"/><rect class="cls-1" x="43.52" y="61.98" width="0.65" height="0.58"/><path class="cls-1" d="M45.79,62.91c-.77,0-1.12.51-1.12,1.25a1.11,1.11,0,0,0,1.18,1.25,1.9,1.9,0,0,0,.9-.24l-.12-.45a1.68,1.68,0,0,1-.7.21.55.55,0,0,1-.62-.6H46.8v-.27C46.8,63.45,46.51,62.91,45.79,62.91ZM45.31,64c0-.29.13-.58.45-.58s.43.27.43.58Z"/><path class="cls-1" d="M47.82,63.29h0c0-.11,0-.21-.07-.33h-.45v2.4h.64V63.62a.69.69,0,0,1,.43-.16.91.91,0,0,1,.3,0c0-.18,0-.37,0-.55a1.25,1.25,0,0,0-.27,0A.61.61,0,0,0,47.82,63.29Z"/><path class="cls-1" d="M50.33,62.91a1,1,0,0,0-.76.33l-.1-.28H49v2.4h.64V63.55a.82.82,0,0,1,.42-.15c.3,0,.43.17.43.54v1.42h.65V63.88C51.17,63.27,50.94,62.91,50.33,62.91Z"/><path class="cls-1" d="M52.73,62.91a1.12,1.12,0,0,0-1.13,1.25c0,.82.41,1.25,1.13,1.25s1.12-.44,1.12-1.25A1.12,1.12,0,0,0,52.73,62.91Zm0,2c-.31,0-.47-.22-.47-.78s.17-.78.47-.78.47.2.47.78S53,64.94,52.73,64.94Z"/><path class="cls-1" d="M56.91,62.71a1.46,1.46,0,0,0,.06.44.79.79,0,0,0-.6-.24c-.59,0-1,.46-1,1.25s.44,1.25,1,1.25A.8.8,0,0,0,57,65.1l.07.26h.52V62h-.63Zm0,2a.65.65,0,0,1-.45.21c-.3,0-.48-.22-.48-.79s.19-.77.49-.77a.85.85,0,0,1,.44.12Z"/><path class="cls-1" d="M59.15,62.91c-.77,0-1.12.51-1.12,1.25a1.11,1.11,0,0,0,1.18,1.25,1.9,1.9,0,0,0,.9-.24L60,64.72a1.68,1.68,0,0,1-.7.21.55.55,0,0,1-.62-.6h1.49v-.27C60.16,63.45,59.87,62.91,59.15,62.91ZM58.67,64c0-.29.13-.58.45-.58s.43.27.43.58Z"/><path class="cls-1" d="M63.14,64.85c-.54,0-.82-.41-.82-1.17s.28-1.13.83-1.13a1.4,1.4,0,0,1,.81.22l.24-.51A2.06,2.06,0,0,0,63.08,62c-.94,0-1.43.69-1.43,1.7s.5,1.73,1.43,1.73a2,2,0,0,0,1.13-.35l-.2-.52A1.53,1.53,0,0,1,63.14,64.85Z"/><path class="cls-1" d="M65.91,62.91a.86.86,0,0,0-.68.33,1.31,1.31,0,0,0,.07-.37V62h-.64v3.38h.64V63.55a.78.78,0,0,1,.42-.15c.24,0,.37.12.39.39a.21.21,0,0,1,0,.15v1.42h.65V63.88C66.8,63.27,66.6,62.91,65.91,62.91Z"/><rect class="cls-1" x="67.5" y="61.98" width="0.65" height="0.58"/><polygon class="cls-1" points="67.24 63.37 67.52 63.43 67.52 65.36 68.15 65.36 68.15 62.96 67.24 62.96 67.24 63.37"/><path class="cls-1" d="M69.37,64.69V62h-.63v2.75c0,.42.17.68.66.68a1.87,1.87,0,0,0,.35,0v-.45C69.49,64.92,69.37,64.89,69.37,64.69Z"/><path class="cls-1" d="M71.2,62.91c-.77,0-1.12.51-1.12,1.25a1.11,1.11,0,0,0,1.18,1.25,1.9,1.9,0,0,0,.9-.24L72,64.72a1.68,1.68,0,0,1-.7.21.55.55,0,0,1-.62-.6h1.49v-.27C72.21,63.45,71.92,62.91,71.2,62.91ZM70.72,64c0-.29.13-.58.45-.58s.43.27.43.58Z"/><path class="cls-1" d="M76.74,1.19V0H0V70H76.75V1.19ZM1.19,68.81V1.19H31.06V68.81Zm31.06,0V1.19h43.3V68.81Z"/><path class="cls-1" d="M12.53,8.42a2.06,2.06,0,0,0,1.17.17.85.85,0,0,0,.48-.27c.05-.05.08-.13.16-.13a.91.91,0,0,0,.6,1,.44.44,0,0,0,0,.1c.2.8.74.7.75.75a.3.3,0,0,0-.08.46,2.19,2.19,0,0,1,1.43,0,.29.29,0,0,0,.1-.4C17.1,10,17,9.94,17,9.93c.76-.18,1.17-1.3,1.15-1.72a1.52,1.52,0,0,0,1.91-.08,1.38,1.38,0,0,0-.09-2,1.25,1.25,0,0,0-1.4,0A.72.72,0,0,0,18,5.82a1.43,1.43,0,0,0-.28-.91,1.47,1.47,0,0,0-1.85,0,1.3,1.3,0,0,0-1.72,1.37A2.24,2.24,0,0,0,13,6.1a1.28,1.28,0,0,0-.75.43,1.78,1.78,0,0,0-.17.27,1.26,1.26,0,0,0,.44,1.62Z"/><path class="cls-1" d="M19.42,11.44a.21.21,0,0,0,.06-.17.17.17,0,0,0-.08-.12l-.5-.32,0,0h0s-.06,0-.11.06a.94.94,0,0,1-.59.21l-.17,0a1.78,1.78,0,0,1-.43-.16l-.25-.11h0a2.41,2.41,0,0,0-.93-.2,2.47,2.47,0,0,0-.93.2h0l-.11.05L15,11a1.14,1.14,0,0,1-.3.09l-.17,0a.89.89,0,0,1-.58-.21.19.19,0,0,0-.12-.06h0l-.5.32a.2.2,0,0,0-.09.13.18.18,0,0,0,.06.17,2.4,2.4,0,0,1,.54,1.44,2,2,0,0,1-.35,1.28,1.5,1.5,0,0,0,1.47,2.27c.09,0,.89,0,1.16.52,0,0,.14.22.19.33l.06.12.06-.12c.06-.1.18-.31.2-.33.27-.51,1.07-.52,1.16-.52a1.5,1.5,0,0,0,1.47-2.27,2.16,2.16,0,0,1-.36-1.29A2.4,2.4,0,0,1,19.42,11.44Zm-1,1.42-1.4,1,.54,1.57-1.34-1-1.34,1,.54-1.57-1.4-1h1.72l.48-1.59.48,1.59Z"/><path class="cls-1" d="M27.55,19.38a.69.69,0,0,0-.43-.94.61.61,0,0,0-.51,0h0l0,0a.35.35,0,0,0-.1.25.36.36,0,0,0,.35.36.38.38,0,0,0,.21-.07.34.34,0,0,0,.14-.21.39.39,0,0,1,.13.17c.2.63-.51.85-.51.85a2.76,2.76,0,0,1-2.53-.33l.28-.15a.6.6,0,0,1,.24-.05v0a.31.31,0,1,0,.62,0,.28.28,0,0,0-.06-.19c-.18-.27-.82-.09-.82-.09a1.13,1.13,0,0,0,0-.89.86.86,0,0,0-1-.42.44.44,0,0,0-.29.29c-.09.47.3.52.3.52a.25.25,0,0,0,.29-.22c0-.22-.28-.23-.28-.23.26-.47,1.1.3.55,1a.08.08,0,0,1-.11,0,10.37,10.37,0,0,1-1.69-1c0-.26-.26-.4-.21-.47s.17.05.25-.06a6.8,6.8,0,0,0,.14-.76,2.75,2.75,0,0,0,1.75.22.19.19,0,0,0,.14-.19c0-.33-.84-2.27-.86-3,.4.2.65-.42.72-.61.54.25.73,5.27,1.15,5.43.2.09.29-.25.31-.32a16.43,16.43,0,0,0,.64-5.14,13.9,13.9,0,0,0-.43-3.11c-.17-.58-.5-1.77-1.26-1.93a.55.55,0,0,0-.63.56c0,.26.19.38.11.64a2.28,2.28,0,0,0-.24.53c-.05.19.12.27.06.47-.24,0-.36.17-.74.07.25-.11.25-.82-.05-.94-.05,0-.1,0-.11-.07a.93.93,0,0,0,.15-.2,1,1,0,0,0,0-.91c.13,0,.26-.22.28-.41h0a.87.87,0,0,1,.07-.36.11.11,0,0,0,0-.13.1.1,0,0,0-.13,0c-.07.15-.25.07-.18-.09a.1.1,0,0,0,0-.13.09.09,0,0,0-.12,0c-.08.15-.25.06-.18-.09a.11.11,0,0,0,0-.13.09.09,0,0,0-.12,0c-.08.16-.26.07-.18-.08A.1.1,0,0,0,22.5,7a.09.09,0,0,0-.12,0,.82.82,0,0,1-.22.31c-.17,0-.12.22-.1.35a.46.46,0,0,0-.57.39h0c-.27,0-.52.14-.5.38a.42.42,0,0,0,.23.31s0-.14.13-.15a.36.36,0,0,1,.33.22c0,.13-.09.45.34.5a1.13,1.13,0,0,1,0,.14,1.29,1.29,0,0,0-.34,0c-.27.05-.64.2-.73.47a.41.41,0,0,0,0,.2c0,.05.06.12.05.19a.34.34,0,0,1-.09.12.82.82,0,0,1-.5.24.6.6,0,0,1-.48-.23c-.28-.37.08-1,.07-1.23,0-.63-.81-.26-1.12-.09a3,3,0,0,0-.92.82,2.36,2.36,0,0,0-.37.56.07.07,0,0,1-.08,0,1.88,1.88,0,0,0,.67.18,1.07,1.07,0,0,0,.75-.2.16.16,0,0,1,.11,0,.21.21,0,0,1,.12,0l.09.08.1.08.05,0,.17.13,0,0,.18.14.16.12h0s0,0,0,0a.11.11,0,0,1,0,.08l-.09.1a3.56,3.56,0,0,0-.41.72.94.94,0,0,0,.75.56.39.39,0,0,0,.44-.32l0,0s.19.81.4,1c-.19.09-.49.4-.33,1.24a7.08,7.08,0,0,1-.59-.5.91.91,0,0,0-.73-.62,3.85,3.85,0,0,0,.32.71,1.94,1.94,0,0,1,.21,1.14c.19-.2.16-.76.16-.76l0,0s.24.39.58.47a4.37,4.37,0,0,0,1.44,1.55c0,.19,0,.63-.11.63-.38.09-.73-.17-1.07-.15l-.06,0c-1.45-.7-3.36.8-3.68,1.09-.17.16-.37-.06-.37-.06A.45.45,0,0,0,16.4,18a.47.47,0,0,0-.41.19s-.19.22-.36.06-2-1.62-3.45-1.16c0-.08-.2-.12-.25-.14a1.41,1.41,0,0,1-.28-.15,1.87,1.87,0,0,0-.58-.05.65.65,0,0,1-.23-.09,2,2,0,0,1-.63-.51L10.12,16a.94.94,0,0,1-.16-.3,2.17,2.17,0,0,1,.08-.87c0-.21,0-.22.05-.45A2.64,2.64,0,0,0,11.56,13l.08-.14h.12c.36,0,.6-.2,1-.15,0,0,.05.18.31.29a1.43,1.43,0,0,0,.12.67.71.71,0,0,0,.07.09,2.76,2.76,0,0,0,.22-.93.1.1,0,0,1,0-.08.84.84,0,0,0-.49-.67,2.38,2.38,0,0,1-.29-.13,1.15,1.15,0,0,1-.38-.38.78.78,0,0,0,.1-.1,2.23,2.23,0,0,0,.47-1.08c.19-.26.72-.16.93-.12a.55.55,0,0,1,.18.06c.06,0,.07.13.15.16a.53.53,0,0,0,.28,0,.61.61,0,0,1,.09.16.28.28,0,0,0,.08.1,1.75,1.75,0,0,0,.72-.21l0,0a.82.82,0,0,0-.43-.32c-.2,0-.24-.22-.44-.25a.6.6,0,0,0-.27,0A5.71,5.71,0,0,1,13,9.83c-.38,0-.39.23-.53.44a1.37,1.37,0,0,1-.17.23c-.1.1-.22.1-.35.2l0-.16a1.65,1.65,0,0,0-.17-.39,1.35,1.35,0,0,0-.89-.67.48.48,0,0,1-.16-.09.08.08,0,0,1,0-.13c.13-.07.35,0,.5-.11.36-.17.23-.48.09-.5a3.53,3.53,0,0,1-.57-.16c-.09-.06-.24-.33-.38-.4s-.11-.3-.25-.36a.51.51,0,0,0-.26.08c0-.06-.05-.35-.21-.45s-.16,0-.16.11.18.15.21.43L9.57,8a.59.59,0,0,0-.2-.36c-.12-.07-.16,0-.16.11s.16.14.21.37l-.11.09C9.07,8.1,9,7.93,9,7.92s-.18,0-.13.15a.63.63,0,0,0,.36.23.27.27,0,0,0-.07.08c-.28-.06-.35-.24-.41-.26s-.18,0-.13.15.4.25.43.25a.37.37,0,0,0-.06.2c-.22,0-.61.09-.53.35.07,0,.33-.16.56,0s.41.25.47.3.1.19.14.31a2.7,2.7,0,0,0,.34.56c.13.2.27.42.41.6a.31.31,0,0,1,0,.17,4.85,4.85,0,0,1-.84.74c-.2.19-2.08,1.62-2.32,2.24a1.34,1.34,0,0,0-.07.51c-.12.06-.37.16-.45,0s.14-.36.08-.55a.15.15,0,0,0-.21-.08A.63.63,0,0,0,6.62,15c.33.13.37-.22.63-.08.06,0,.65.57.55,1a.42.42,0,0,1,0,.1c-.13.16-.35.29-.5.44-.31.2.3,1.43.25,2.07,0,.24.2.21.34.59a.45.45,0,0,0-.36.15.28.28,0,0,0-.06.19.31.31,0,0,0,.31.31.31.31,0,0,0,.31-.31s0,0,0,0a.62.62,0,0,1,.25.05l.27.15A2.74,2.74,0,0,1,6,19.89s-.71-.22-.51-.85a.31.31,0,0,1,.13-.17.34.34,0,0,0,.14.21.37.37,0,0,0,.2.07.36.36,0,0,0,.36-.36.39.39,0,0,0-.1-.25l0,0h0a.57.57,0,0,0-.51-.06.7.7,0,0,0-.44.94s-.46-.11-.63.11a.25.25,0,0,0-.06.17h0a.65.65,0,0,0,.05.15.27.27,0,0,0,.22.11A.26.26,0,0,0,5,19.84H5s.08,0,.16,0c1,1.09,2.73.64,3.67-.09a5.74,5.74,0,0,1,1.1-.84c.23.1.47.17.7.25a2.34,2.34,0,0,0,.43,1.38.5.5,0,0,1-.71.22.37.37,0,0,1-.05-.56s.19-.15.27,0a.18.18,0,0,0-.17.18.18.18,0,0,0,.18.18.18.18,0,0,0,.18-.17.43.43,0,0,0-.15-.39.46.46,0,0,0-.41-.12c-.4.07-.62.89.16,1.23,0,0,.61.28.93-.18,0,0,0-.06.11.05a2.44,2.44,0,0,0,2.67,0s.14-.09.3-.17a.46.46,0,0,0,.45.44.45.45,0,0,0,.45-.45.44.44,0,0,0-.37-.44.89.89,0,0,0-.72.17,3.63,3.63,0,0,1-.41.23,2.46,2.46,0,0,0,.3-.89c.63.07,1.28.12,1.95.13a1.88,1.88,0,0,1-.11.62s-.24.09-.24.26c0,0,0,.12.18.29a1,1,0,0,1,.2.3s0,.19.27.19h.09c.25,0,.27-.19.27-.19a1.09,1.09,0,0,1,.19-.3c.21-.17.19-.29.19-.29,0-.17-.24-.26-.24-.26a1.66,1.66,0,0,1-.11-.62c.67,0,1.31-.06,1.94-.13a2.66,2.66,0,0,0,.31.89,3.68,3.68,0,0,1-.42-.23.89.89,0,0,0-.72-.17.44.44,0,0,0-.37.44.45.45,0,0,0,.45.45.45.45,0,0,0,.45-.44l.31.17a2.44,2.44,0,0,0,2.67,0c.11-.11.11-.05.11-.05.32.46.93.18.93.18.78-.34.55-1.16.16-1.23a.46.46,0,0,0-.41.12.43.43,0,0,0-.15.39.17.17,0,0,0,.18.17.18.18,0,0,0,.18-.18.19.19,0,0,0-.17-.18c.08-.19.27,0,.27,0a.37.37,0,0,1,0,.56.52.52,0,0,1-.72-.22,2.2,2.2,0,0,0,.43-1.38c.24-.08.48-.15.71-.25a5.87,5.87,0,0,1,1.09.84c.94.73,2.64,1.18,3.68.09.08-.08.14-.05.15,0h0a.27.27,0,0,0,.42,0,.26.26,0,0,0,0-.15h0a.22.22,0,0,0,0-.17C28,19.27,27.55,19.38,27.55,19.38ZM8.8,19.16a.08.08,0,0,1-.11,0c-.54-.67.29-1.44.56-1,0,0-.32,0-.28.23,0,0,0,.23.29.22,0,0,.39-.05.3-.52a.44.44,0,0,0-.3-.29.86.86,0,0,0-1,.42,1.13,1.13,0,0,0-.07.36.49.49,0,0,0-.27-.13,3.56,3.56,0,0,1-.21-1.81,1.82,1.82,0,0,0,1.43-1.33.56.56,0,0,1,.35.42c0,.14,0,.29,0,.4a2.18,2.18,0,0,0,.56.44,11,11,0,0,0,.93.66c.11,0,.18-.06.27,0s.06,0,.09.05l.13.11a7.08,7.08,0,0,0-.82.64A6.7,6.7,0,0,1,8.8,19.16Zm2.59.75a1.2,1.2,0,0,1-.12.35,2.31,2.31,0,0,1-.25-1l.53.17A2.41,2.41,0,0,0,11.39,19.91Zm2.07,1a1.83,1.83,0,0,1-1.86-.34,4,4,0,0,1,.26-1,18.47,18.47,0,0,0,1.91.36C13.72,20.33,13.63,20.87,13.46,20.89Zm-1.09-2.14a1.29,1.29,0,0,1,.85-.35s.49,0,.58.61C13.27,18.93,12.78,18.85,12.37,18.75Zm1.1-.7a2.55,2.55,0,0,0-1.38.63q-.51-.12-.87-.24a2,2,0,0,1,.17-.27,2.29,2.29,0,0,1,2.61-.5S13.93,18,13.47,18.05Zm.76,1c.07-.67.12-1.23.37-1.23a.42.42,0,0,1,.29.17c.21.29.78.64,1,1.17C15.32,19.16,14.75,19.13,14.23,19.07Zm2.65.11c.26-.53.83-.88,1-1.17a.42.42,0,0,1,.29-.17c.24,0,.29.56.36,1.23C18.06,19.13,17.49,19.16,16.88,19.18Zm1.93-1.51a2.27,2.27,0,0,1,2.6.5.91.91,0,0,1,.17.28l-.86.23a2.58,2.58,0,0,0-1.38-.63C18.88,18,18.77,17.68,18.81,17.67Zm.78.73a1.29,1.29,0,0,1,.85.35A13.52,13.52,0,0,1,19,19,.62.62,0,0,1,19.59,18.4Zm-.24,2.49c-.18,0-.27-.56-.31-1A16.15,16.15,0,0,0,21,19.55a4.62,4.62,0,0,1,.26,1A1.83,1.83,0,0,1,19.35,20.89Zm2.18-.63a1.61,1.61,0,0,1-.12-.35,3.58,3.58,0,0,0-.15-.43l.52-.17A2.31,2.31,0,0,1,21.53,20.26Z"/><path class="cls-1" d="M35.79,8.7h0c.08.45.15.77.21,1l.57,2.52h1.2l.59-2.52c.06-.25.13-.57.21-1h0l.09,3.54h.92l-.17-4.19H38.09s-.54,2.12-.82,3.46h0c-.24-1.35-.7-3.46-.7-3.46H35.16L35,12.24h.75Z"/><rect class="cls-1" x="40.55" y="7.96" width="0.82" height="0.74"/><polygon class="cls-1" points="40.57 12.24 41.38 12.24 41.38 9.2 40.22 9.2 40.22 9.71 40.57 9.78 40.57 12.24"/><path class="cls-1" d="M42.92,9.94a1.05,1.05,0,0,1,.54-.18c.37,0,.54.22.54.67v1.81h.83V10.36c0-.77-.31-1.22-1.08-1.22a1.25,1.25,0,0,0-1,.41l-.12-.35h-.56v3h.81Z"/><rect class="cls-1" x="45.71" y="7.96" width="0.82" height="0.74"/><polygon class="cls-1" points="45.74 12.24 46.55 12.24 46.55 9.2 45.39 9.2 45.39 9.71 45.74 9.78 45.74 12.24"/><path class="cls-1" d="M48.08,11.72a1.4,1.4,0,0,1-.72-.21l-.17.57a1.9,1.9,0,0,0,.91.22c.79,0,1.2-.43,1.2-1,0-1-1.32-.85-1.32-1.32,0-.17.14-.28.42-.28a1.67,1.67,0,0,1,.73.16l.11-.59a2.35,2.35,0,0,0-.85-.15c-.82,0-1.16.4-1.16.85,0,1,1.29.85,1.29,1.4C48.52,11.58,48.34,11.72,48.08,11.72Z"/><path class="cls-1" d="M50.17,11.28c0,.77.35,1,.89,1a1.83,1.83,0,0,0,.82-.2l-.13-.6a1.08,1.08,0,0,1-.46.11c-.22,0-.32-.13-.32-.34V9.78h.81V9.2H51V8.41l-.8.26V9.2h-.46v.58h.46Z"/><path class="cls-1" d="M53.62,12.3a2.47,2.47,0,0,0,1.15-.3l-.16-.57a2,2,0,0,1-.89.26.69.69,0,0,1-.78-.75h1.89v-.36c0-.76-.36-1.44-1.28-1.44s-1.42.64-1.42,1.57A1.41,1.41,0,0,0,53.62,12.3Zm-.11-2.57c.42,0,.54.34.54.73H52.94C52.94,10.1,53.1,9.73,53.51,9.73Z"/><path class="cls-1" d="M56.24,10a.9.9,0,0,1,.55-.2,1.46,1.46,0,0,1,.38.05V9.19a1.18,1.18,0,0,0-.35,0,.8.8,0,0,0-.72.47h0L56,9.2h-.56v3h.8Z"/><rect class="cls-1" x="57.88" y="7.96" width="0.82" height="0.74"/><polygon class="cls-1" points="57.9 12.24 58.71 12.24 58.71 9.2 57.55 9.2 57.55 9.71 57.9 9.78 57.9 12.24"/><path class="cls-1" d="M62.18,10.71a1.44,1.44,0,1,0-2.86,0c0,1,.52,1.59,1.43,1.59S62.18,11.75,62.18,10.71Zm-1.43,1c-.4,0-.59-.29-.59-1s.21-1,.59-1,.59.25.59,1S61.15,11.71,60.75,11.71Z"/><path class="cls-1" d="M66,8.88a1.91,1.91,0,0,0,.07.56,1,1,0,0,0-.75-.3c-.74,0-1.31.58-1.31,1.58s.55,1.58,1.24,1.58a1,1,0,0,0,.8-.4l.1.34h.65V8H66Zm0,2.57a.82.82,0,0,1-.57.26c-.38,0-.61-.27-.61-1s.24-1,.63-1A1.06,1.06,0,0,1,66,9.9Z"/><path class="cls-1" d="M69,12.3A2.44,2.44,0,0,0,70.1,12l-.16-.57a2,2,0,0,1-.89.26.69.69,0,0,1-.78-.75h1.89v-.36c0-.76-.36-1.44-1.28-1.44s-1.42.64-1.42,1.57A1.41,1.41,0,0,0,69,12.3Zm-.11-2.57c.42,0,.54.34.54.73H68.27C68.27,10.1,68.44,9.73,68.84,9.73Z"/><polygon class="cls-1" points="38.27 18.08 38.27 13.9 37.44 13.9 37.44 15.61 35.89 15.61 35.89 13.9 35.08 13.9 35.08 18.08 35.89 18.08 35.89 16.35 37.44 16.35 37.44 18.08 38.27 18.08"/><path class="cls-1" d="M40.05,16.27c-.73,0-1.15.34-1.15.9a.94.94,0,0,0,1,1,1.08,1.08,0,0,0,.88-.42l.12.36h.55V16.15c0-.77-.37-1.17-1.24-1.17a3,3,0,0,0-1.19.25l.2.58a2.07,2.07,0,0,1,.91-.21c.31,0,.54.13.54.52v.15Zm.64,1.12a.9.9,0,0,1-.54.2.41.41,0,0,1-.46-.44c0-.23.16-.4.49-.4h.51Z"/><path class="cls-1" d="M43.62,17.53c-.44,0-.7-.28-.7-1s.27-1,.69-1a1.54,1.54,0,0,1,.77.18l.21-.55A2.07,2.07,0,0,0,43.54,15a1.4,1.4,0,0,0-1.44,1.58c0,1.07.55,1.58,1.45,1.58a2.38,2.38,0,0,0,1-.26l-.15-.58A1.8,1.8,0,0,1,43.62,17.53Z"/><rect class="cls-1" x="45.35" y="13.8" width="0.82" height="0.74"/><polygon class="cls-1" points="45.38 18.08 46.19 18.08 46.19 15.04 45.03 15.04 45.03 15.55 45.38 15.63 45.38 18.08"/><path class="cls-1" d="M49.45,17.85l-.16-.57a2.08,2.08,0,0,1-.89.25.69.69,0,0,1-.78-.75h1.89v-.35c0-.77-.36-1.45-1.28-1.45s-1.42.64-1.42,1.58a1.4,1.4,0,0,0,1.49,1.58A2.61,2.61,0,0,0,49.45,17.85Zm-1.26-2.27c.42,0,.54.33.54.72H47.62C47.62,15.94,47.79,15.58,48.19,15.58Z"/><path class="cls-1" d="M52,16.28v1.8h.82V16.2c0-.77-.3-1.22-1.07-1.22a1.27,1.27,0,0,0-1,.41L50.67,15h-.55v3h.81V15.79a.92.92,0,0,1,.53-.19C51.83,15.6,52,15.82,52,16.28Z"/><path class="cls-1" d="M55.54,18.08h.65V13.8h-.8v.92a1.86,1.86,0,0,0,.07.56,1,1,0,0,0-.76-.3c-.73,0-1.3.58-1.3,1.58s.55,1.58,1.24,1.58a1,1,0,0,0,.8-.39Zm-.15-.79a.78.78,0,0,1-.57.26c-.38,0-.61-.27-.61-1s.24-1,.62-1a1.07,1.07,0,0,1,.56.15Z"/><path class="cls-1" d="M58.69,17.72l.11.36h.55V16.15c0-.77-.37-1.17-1.24-1.17a3,3,0,0,0-1.19.25l.2.58A2.07,2.07,0,0,1,58,15.6c.31,0,.54.13.54.52v.15h-.64c-.73,0-1.15.34-1.15.9a.94.94,0,0,0,1,1A1.1,1.1,0,0,0,58.69,17.72Zm-.12-.33a.9.9,0,0,1-.54.2.4.4,0,0,1-.45-.44c0-.23.15-.4.49-.4h.5Z"/></svg>