<?xml version="1.0" encoding="utf-8"?>
<!-- Generator: Adobe Illustrator 23.0.1, SVG Export Plug-In . SVG Version: 6.00 Build 0)  -->
<svg version="1.1" id="Capa_1" xmlns="http://www.w3.org/2000/svg" xmlns:xlink="http://www.w3.org/1999/xlink" x="0px" y="0px"
	 viewBox="0 0 270.9 188.8" style="enable-background:new 0 0 270.9 188.8;" xml:space="preserve">
<style type="text/css">
	.st0{fill:#0082AB;}
	.st1{fill:#0D80B1;}
	.st2{fill:#FD6B82;}
	.st3{fill:#F56F80;}
	.st4{fill:#0D3758;}
	.st5{fill:#F91E5B;}
	.st6{fill:#003354;}
	.st7{fill:#F61B56;}
</style>
<g>
	<path class="st0" d="M29.6,1.6C14.8,1.8,3,14.2,3,29v4.8C3,37.2,5.7,40,9.1,40s6.1-2.8,6.1-6.1v-4.9c0-8.2,6.7-15.2,15-15.1
		c8,0.1,14.6,6.7,14.6,14.7c0-6.5,2.2-12.4,6-17.1C45.8,5.3,38.1,1.5,29.6,1.6"/>
	<path class="st1" d="M57,28.6C57,28.6,57,28.6,57,28.6C57,28.6,57,28.6,57,28.6L57,28.6z"/>
	<path class="st2" d="M71.8,1.6c-8.4,0-15.9,3.8-20.9,9.9c3.8,4.7,6,10.6,6,17.1c0-8.1,6.7-14.7,14.8-14.7c8.1,0,14.8,6.6,14.8,14.6
		c0-6.5,2.2-12.4,6.1-17C87.7,5.4,80.1,1.6,71.8,1.6"/>
	<path class="st3" d="M44.7,28.6C44.7,28.6,44.7,28.6,44.7,28.6C44.7,28.6,44.7,28.6,44.7,28.6"/>
	<path class="st3" d="M98.8,28.6C98.8,28.6,98.8,28.6,98.8,28.6C98.8,28.5,98.8,28.6,98.8,28.6L98.8,28.6z"/>
	<path class="st4" d="M44.7,28.6C44.7,28.6,44.7,28.6,44.7,28.6v5.3c0,3.4,2.8,6.1,6.1,6.1s6.1-2.8,6.1-6.1v-5.3c0,0,0,0,0,0
		c0-6.5-2.3-12.4-6.1-17.1C47,16.1,44.7,22.1,44.7,28.6"/>
	<path class="st4" d="M113.9,1.6c-8.6-0.1-16.3,3.7-21.3,9.9c3.8,4.7,6,10.6,6,17c0-8,6.6-14.5,14.6-14.6c8.2-0.1,15,6.8,15,15.1
		v4.9c0,3.4,2.8,6.1,6.1,6.1s6.1-2.8,6.1-6.1V29C140.5,14.2,128.7,1.8,113.9,1.6"/>
	<path class="st4" d="M86.5,28.5C86.5,28.5,86.5,28.6,86.5,28.5L86.5,28.5C86.5,28.6,86.5,28.5,86.5,28.5"/>
	<path class="st5" d="M86.5,28.5C86.5,28.5,86.5,28.6,86.5,28.5v5.4c0,3.4,2.8,6.1,6.1,6.1s6.1-2.8,6.1-6.1v-5.3c0,0,0-0.1,0-0.1
		c0-6.5-2.3-12.4-6.1-17C88.8,16.1,86.5,22,86.5,28.5"/>
</g>
<g>
	<path class="st6" d="M40.9,74.2c0,6.6-2.2,12.1-6.5,16.5c-4.4,4.4-10.2,6.7-17.6,6.7H3V51h13.9c7.4,0,13.2,2.2,17.6,6.6
		C38.7,62,40.9,67.6,40.9,74.2z M35.7,74.2c0-5.4-1.7-9.9-5.1-13.5c-3.5-3.7-8-5.4-13.8-5.4H8.1v37.9h8.8c5.8,0,10.3-1.8,13.8-5.4
		C34,84,35.7,79.5,35.7,74.2z"/>
	<path class="st6" d="M49.5,50.6c1.3-1.4,3.7-1.4,5.1,0s1.4,3.9,0,5.2c-1.4,1.4-3.8,1.4-5.1,0C48.1,54.5,48.1,52,49.5,50.6z
		 M54.5,64.3v33h-5v-33H54.5z"/>
	<path class="st6" d="M97.5,64.3v33h-5v-6.6c-2.8,4.8-7.2,7.3-13.1,7.3c-4.9,0-8.9-1.7-11.9-5c-3.1-3.3-4.6-7.4-4.6-12.3
		s1.5-8.9,4.6-12.3c3-3.3,7-5,11.9-5c5.9,0,10.3,2.4,13.1,7.3v-6.6L97.5,64.3L97.5,64.3z M71.2,89.9c2.2,2.4,5,3.7,8.7,3.7
		c3.6,0,6.6-1.2,9.1-3.6c2.4-2.4,3.7-5.4,3.7-9.2c0-3.8-1.2-6.8-3.7-9.2c-2.4-2.4-5.5-3.6-9.1-3.6c-3.7,0-6.5,1.2-8.7,3.7
		c-2.2,2.4-3.2,5.5-3.2,9.2S69,87.5,71.2,89.9z M81.8,49.4h5.7l-7.3,9.9h-4.3L81.8,49.4z"/>
	<path class="st6" d="M113.5,49.4v47.9h-5V49.4H113.5z"/>
	<path class="st6" d="M127,68.7c3.4-3.4,7.4-5,12.2-5c4.8,0,8.9,1.7,12.3,5c3.4,3.4,5.1,7.5,5.1,12.2c0,4.8-1.7,8.8-5.1,12.2
		s-7.5,5-12.3,5c-4.8,0-8.8-1.7-12.2-5c-3.4-3.4-5.1-7.4-5.1-12.2C121.9,76.2,123.6,72,127,68.7z M130.5,89.9
		c2.4,2.5,5.3,3.8,8.7,3.8c3.4,0,6.3-1.3,8.8-3.8c2.4-2.4,3.6-5.4,3.6-8.9c0-3.5-1.2-6.6-3.6-9.1c-2.4-2.5-5.4-3.8-8.8-3.8
		s-6.3,1.3-8.7,3.8c-2.4,2.5-3.7,5.6-3.7,9.1C126.9,84.4,128.1,87.4,130.5,89.9z"/>
	<path class="st6" d="M196.8,64.3V97c0,5.1-1.6,9-4.8,11.8c-3.2,2.8-7.3,4.2-12.3,4.2c-5.4,0-10.1-1.5-14.1-4.6l2-3.9
		c3.3,2.7,7.4,4,12.1,4c7.4,0,12.1-4.5,12.1-11.9v-5.8c-2.9,4.8-7.2,7.3-13.1,7.3c-4.9,0-8.9-1.7-11.9-5c-3.1-3.3-4.6-7.4-4.6-12.3
		s1.5-8.9,4.6-12.3c3-3.3,7-5,11.9-5c5.9,0,10.3,2.4,13.1,7.3v-6.6L196.8,64.3L196.8,64.3z M170.4,89.9c2.2,2.4,5,3.7,8.7,3.7
		c3.6,0,6.6-1.2,9.1-3.6s3.6-5.4,3.6-9.2c0-3.8-1.2-6.8-3.6-9.2c-2.4-2.4-5.5-3.6-9.1-3.6c-3.6,0-6.5,1.2-8.7,3.7
		c-2.2,2.4-3.2,5.5-3.2,9.2S168.2,87.5,170.4,89.9z"/>
	<path class="st6" d="M209.9,68.7c3.4-3.4,7.4-5,12.2-5c4.8,0,8.9,1.7,12.3,5s5.1,7.5,5.1,12.2c0,4.8-1.7,8.8-5.1,12.2
		s-7.5,5-12.3,5c-4.8,0-8.8-1.7-12.2-5c-3.4-3.4-5.1-7.4-5.1-12.2C204.8,76.2,206.6,72,209.9,68.7z M213.5,89.9
		c2.4,2.5,5.3,3.8,8.7,3.8s6.3-1.3,8.8-3.8c2.4-2.4,3.6-5.4,3.6-8.9c0-3.5-1.2-6.6-3.6-9.1c-2.4-2.5-5.4-3.8-8.8-3.8
		s-6.3,1.3-8.7,3.8c-2.4,2.5-3.6,5.6-3.6,9.1C209.8,84.4,211,87.4,213.5,89.9z"/>
	<path class="st6" d="M262.4,71.8c-0.9-2.6-2.6-3.8-5.3-3.8c-3.6,0-6,2.4-6,5.1c0,2.2,1.5,3.8,4.6,4.8l4.9,1.6
		c5.2,1.7,7.9,4.7,7.9,9c0,2.9-1.1,5.2-3.4,7c-2.3,1.8-5,2.7-8.2,2.7c-5.8,0-10.7-2.9-12.2-7.9l4.4-1.1c1,2.8,4.1,4.6,7.8,4.6
		c3.8,0,6.6-2.1,6.6-5.2c0-2.2-1.6-3.8-4.7-4.8l-4.6-1.5c-5.4-1.7-8-4.6-8-8.8c0-2.7,1-5,2.9-6.9c1.9-1.9,4.5-2.8,7.8-2.8
		c4.7,0,9,2.4,10.1,7.2L262.4,71.8z"/>
</g>
<g>
	<path class="st7" d="M11,150.1c1.3,4.2,4,6.4,8.4,6.4c4,0,7-1.5,7-4.8c0-2.1-1.3-3.6-5.4-5l-5-1.7c-7.9-2.7-11.8-7.3-11.8-13.8
		c0-4.1,1.5-7.4,4.4-9.9s6.7-3.7,11.3-3.7c7.2,0,12.8,3.5,15.5,10.2L27,132c-1.5-3.5-3.9-5.2-7.2-5.2c-3.4,0-5.6,1.4-5.6,4.3
		c0,2.2,1.7,3.9,5,5l4.9,1.7c8.2,2.5,12.3,7.1,12.3,13.7c0,4.6-1.7,8-4.9,10.4c-3.3,2.4-7.2,3.6-11.7,3.6c-4.6,0-8.7-1.3-12.1-3.7
		c-3.4-2.4-5.4-5.8-5.8-9.9L11,150.1z"/>
	<path class="st7" d="M41.2,147.7c0-5.2,1.9-9.4,5.6-12.7c3.7-3.3,8-5,13.1-5s9.5,1.7,13.2,5c3.7,3.4,5.5,7.6,5.5,12.7
		c0,5.2-1.9,9.4-5.5,12.7c-3.7,3.4-8.1,5-13.2,5s-9.5-1.7-13.1-5C43,157.2,41.2,152.9,41.2,147.7z M53.5,154.4
		c1.8,1.8,3.9,2.6,6.4,2.6s4.6-0.9,6.4-2.7c1.8-1.8,2.7-4,2.7-6.6s-0.9-4.8-2.7-6.6c-1.8-1.8-4-2.6-6.4-2.6s-4.6,0.9-6.4,2.6
		c-1.8,1.8-2.7,4-2.7,6.6C50.8,150.4,51.7,152.6,53.5,154.4z"/>
	<path class="st7" d="M82.8,147.7c0-5.1,1.7-9.4,5.2-12.7c3.4-3.3,8-5,13.8-5c4.7,0,9.3,1.7,13.9,5l-4.5,7.2
		c-2.5-2.2-5.5-3.4-8.9-3.4c-5.8,0-9.6,3.6-9.6,8.8s3.8,8.8,9.6,8.8c3.4,0,6.4-1.1,8.9-3.4l4.5,7.2c-4.6,3.4-9.2,5-13.9,5
		c-5.8,0-10.3-1.7-13.8-5C84.5,157.1,82.8,152.9,82.8,147.7z"/>
	<path class="st7" d="M122.3,117.7c1.1-1.1,2.7-1.6,4.4-1.6c3.5,0,6.3,2.4,6.3,5.6c0,3.2-2.8,5.5-6.3,5.5c-1.8,0-3.3-0.5-4.4-1.5
		C119.9,123.7,119.9,119.8,122.3,117.7z M131.6,164.8h-9.9v-34h9.9V164.8z"/>
	<path class="st7" d="M165.4,130.8h9.9v34h-9.9v-5c-2.6,3.8-6.2,5.7-10.7,5.7c-5,0-9.1-1.7-12.1-5.1c-3-3.4-4.5-7.7-4.5-12.8
		c0-5,1.5-9.1,4.4-12.5c2.9-3.4,6.9-5,12-5c4.4,0,8.5,2.1,10.9,5.4L165.4,130.8L165.4,130.8z M156.8,157.5c5.1,0,8.9-3.4,8.9-9.3
		c0-6.2-3.6-10.1-9.1-10.1c-5.2,0-8.5,4.1-8.5,9.6C148.1,153.2,151.5,157.5,156.8,157.5z"/>
	<path class="st7" d="M193.8,164.8h-9.9v-47.9h9.9V164.8z"/>
	<path class="st7" d="M235.7,158.8c-4,4.4-9.4,6.7-15.9,6.7c-6.1,0-10.9-1.7-14.3-5c-3.4-3.3-5.2-7.5-5.2-12.5s1.8-9.3,5.3-12.7
		c3.5-3.4,8-5.2,13.5-5.2c5.1,0,9.4,1.7,13.1,5.2c3.6,3.5,5.4,8.4,5.4,14.9h-27.4c0.2,4.3,4.2,7.4,10.4,7.4c3.4,0,6.6-1.3,9.4-4
		L235.7,158.8z M210.3,144.1h17c-0.6-4-4.5-6-8.4-6C215.2,138.1,211.4,139.9,210.3,144.1z"/>
	<path class="st7" d="M247.8,152.8c0.9,3.5,4,5.1,7.2,5.1c2.4,0,4.4-1,4.4-2.6c0-1.1-0.9-2-2.5-2.6l-6-2.5c-3.7-1.3-6.3-3.4-7.3-5.4
		c-1-2.1-1.2-3.2-1.2-4.3c0-3.2,1.3-5.8,3.8-7.7c2.5-1.8,5.7-2.7,9.6-2.7c5.7,0,9.8,2.4,12.3,7.2l-7.6,3.5c-0.7-2.2-2.3-3.2-4.8-3.2
		c-1.9,0-3.8,1.1-3.8,2.8c0,1.1,1.1,2.1,3.2,2.9l5.1,2c3.7,1.1,6.4,2.9,7.4,5c1.1,2.1,1.3,3.3,1.3,4.8c0,3.3-1.3,5.9-4,7.8
		c-2.6,1.9-6,2.8-9.9,2.8c-3.1,0-6-0.7-8.7-2c-2.6-1.3-4.5-3.5-5.6-6.7L247.8,152.8z"/>
</g>
<g>
	<path class="st4" d="M6.9,184.4c0.3,1.1,0.7,1.7,1.5,1.7c0.3,0,0.6-0.1,0.9-0.4l0.7,1.3c-0.7,0.5-1.1,0.8-2,0.8
		c-1.2,0-2-0.8-2.4-1.7c-0.3-0.6-0.4-1.1-0.4-1.5H4v3.1H2v-8.8h3.9c0.9,0,1.6,0.3,2.1,0.8c0.5,0.6,0.7,1.2,0.7,2.1
		C8.7,183,8,184,6.9,184.4z M4,183h1.7c0.7,0,1.1-0.5,1.1-1.2c0-0.8-0.4-1.2-1.1-1.2H4V183z"/>
	<path class="st4" d="M16.7,187.7h-5.8v-8.8h5.8v1.5h-3.9v2.2h3.4v1.5h-3.4v2h3.9V187.7z"/>
	<path class="st4" d="M20.3,187.7h-1.9v-8.8h5.8v1.5h-3.9v2.2h3.4v1.5h-3.4V187.7z"/>
	<path class="st4" d="M25.1,183.3c0-1.2,0.5-2.3,1.3-3.2s2-1.3,3.2-1.3c1.3,0,2.3,0.4,3.2,1.3s1.3,2,1.3,3.2s-0.4,2.3-1.3,3.2
		s-2,1.3-3.2,1.3c-1.3,0-2.3-0.4-3.2-1.3S25.1,184.5,25.1,183.3z M27,183.3c0,0.8,0.3,1.5,0.8,2c0.5,0.5,1.1,0.8,1.9,0.8
		c0.7,0,1.4-0.3,1.9-0.8c0.5-0.5,0.8-1.2,0.8-2s-0.3-1.5-0.8-2c-0.5-0.5-1.1-0.8-1.9-0.8c-0.7,0-1.4,0.3-1.9,0.8
		C27.3,181.8,27,182.5,27,183.3z"/>
	<path class="st4" d="M40.6,184.4c0.3,1.1,0.7,1.7,1.5,1.7c0.3,0,0.6-0.1,0.9-0.4l0.7,1.3c-0.7,0.5-1.1,0.8-2,0.8
		c-1.2,0-2-0.8-2.4-1.7c-0.3-0.6-0.4-1.1-0.4-1.5h-1.2v3.1h-1.9v-8.8h3.9c0.9,0,1.6,0.3,2.1,0.8c0.5,0.6,0.7,1.2,0.7,2.1
		C42.4,183,41.7,184,40.6,184.4z M37.7,183h1.7c0.7,0,1.1-0.5,1.1-1.2c0-0.8-0.4-1.2-1.1-1.2h-1.7V183z"/>
	<path class="st4" d="M50.1,187.6h-1.3l-2.2-5.2l-0.5,5.3h-1.9l0.8-8.8h2l2.5,5.9l2.5-5.9h2l0.8,8.8h-1.9l-0.5-5.3L50.1,187.6z"/>
	<path class="st4" d="M57.4,187.7h-2l3.4-8.8h1.9l3.4,8.8h-2l-0.6-1.6v0H58v0L57.4,187.7z M59.8,180.9l-1.2,3.5h2.4L59.8,180.9z"/>
	<path class="st4" d="M66.8,178.9h6.9v1.6h-2.5v7.2h-1.9v-7.2h-2.5V178.9z"/>
	<path class="st4" d="M79.9,184.4c0.3,1.1,0.7,1.7,1.5,1.7c0.3,0,0.6-0.1,0.9-0.4l0.7,1.3c-0.7,0.5-1.1,0.8-2,0.8
		c-1.2,0-2-0.8-2.4-1.7c-0.3-0.6-0.4-1.1-0.4-1.5H77v3.1H75v-8.8h3.9c0.9,0,1.6,0.3,2.1,0.8c0.5,0.6,0.7,1.2,0.7,2.1
		C81.7,183,81,184,79.9,184.4z M77,183h1.7c0.7,0,1.1-0.5,1.1-1.2c0-0.8-0.4-1.2-1.1-1.2H77V183z"/>
	<path class="st4" d="M85.8,178.9v8.8h-1.9v-8.8H85.8z"/>
	<path class="st4" d="M92.9,183.1c0.5,0.1,1,0.4,1.3,0.8c0.4,0.4,0.5,0.9,0.5,1.3c0,0.7-0.3,1.3-0.9,1.8c-0.6,0.5-1.3,0.7-2.3,0.7
		h-3.7v-8.8l3.3,0c0.9,0,1.7,0.2,2.2,0.6c0.6,0.4,0.9,1,0.9,1.8C94.3,182,93.8,182.8,92.9,183.1z M89.9,182.6h0.8
		c1.1,0,1.7-0.4,1.7-1.2c0-0.6-0.5-0.9-1.1-0.9h-1.4V182.6z M89.9,183.9v2.2h1.7c0.7,0,1.1-0.4,1.1-1c0-0.4-0.1-0.7-0.4-0.9
		c-0.3-0.2-0.8-0.3-1.5-0.3H89.9z"/>
	<path class="st4" d="M101.5,178.9h1.9v5.5c0,1.1-0.4,1.9-1,2.5c-0.7,0.6-1.6,0.9-2.6,0.9c-1,0-1.9-0.3-2.6-0.9
		c-0.7-0.6-1-1.5-1-2.5v-5.5h1.9v5.5c0,1.2,0.7,1.8,1.7,1.8c1,0,1.7-0.7,1.7-1.8V178.9z"/>
	<path class="st4" d="M104.7,178.9h6.9v1.6h-2.5v7.2h-1.9v-7.2h-2.5V178.9z"/>
	<path class="st4" d="M113,187.7h-2l3.4-8.8h1.9l3.4,8.8h-2L117,186v0h-3.5v0L113,187.7z M115.3,180.9l-1.2,3.5h2.4L115.3,180.9z"/>
	<path class="st4" d="M125.6,184.4c0.3,1.1,0.7,1.7,1.5,1.7c0.3,0,0.6-0.1,0.9-0.4l0.7,1.3c-0.7,0.5-1.1,0.8-2,0.8
		c-1.2,0-2-0.8-2.4-1.7c-0.3-0.6-0.4-1.1-0.4-1.5h-1.2v3.1h-1.9v-8.8h3.9c0.9,0,1.6,0.3,2.1,0.8c0.5,0.6,0.7,1.2,0.7,2.1
		C127.5,183,126.8,184,125.6,184.4z M122.7,183h1.7c0.7,0,1.1-0.5,1.1-1.2c0-0.8-0.4-1.2-1.1-1.2h-1.7V183z"/>
	<path class="st4" d="M131.6,178.9v8.8h-1.9v-8.8H131.6z"/>
	<path class="st4" d="M134.7,187.7h-2l3.4-8.8h1.9l3.4,8.8h-2l-0.6-1.6v0h-3.5v0L134.7,187.7z M137.1,180.9l-1.2,3.5h2.4
		L137.1,180.9z"/>
	<path class="st4" d="M144.6,183.3c0-1.3,0.4-2.3,1.3-3.2c0.9-0.9,2-1.3,3.5-1.3c1.3,0,2.2,0.4,3.2,1.1l-0.8,1.5
		c-0.7-0.6-1.5-0.9-2.3-0.9c-0.9,0-1.6,0.3-2.1,0.8c-0.5,0.5-0.8,1.2-0.8,2s0.3,1.5,0.8,2c0.5,0.5,1.2,0.8,2.1,0.8
		c0.8,0,1.6-0.3,2.3-0.9l0.8,1.5c-1,0.7-1.9,1.1-3.2,1.1c-1.4,0-2.6-0.4-3.5-1.3C145.1,185.6,144.6,184.5,144.6,183.3z"/>
	<path class="st4" d="M153.2,183.3c0-1.2,0.5-2.3,1.3-3.2s2-1.3,3.2-1.3c1.3,0,2.3,0.4,3.2,1.3s1.3,2,1.3,3.2s-0.4,2.3-1.3,3.2
		s-2,1.3-3.2,1.3c-1.3,0-2.3-0.4-3.2-1.3S153.2,184.5,153.2,183.3z M155.1,183.3c0,0.8,0.3,1.5,0.8,2c0.5,0.5,1.1,0.8,1.9,0.8
		c0.7,0,1.4-0.3,1.9-0.8c0.5-0.5,0.8-1.2,0.8-2s-0.3-1.5-0.8-2c-0.5-0.5-1.1-0.8-1.9-0.8c-0.7,0-1.4,0.3-1.9,0.8
		C155.4,181.8,155.1,182.5,155.1,183.3z"/>
	<path class="st4" d="M169.7,187.7l-3.9-5.3v5.3h-1.9v-8.8h1.5l3.9,5.3v-5.3h1.9v8.8H169.7z"/>
	<path class="st4" d="M178.2,186.1h4v1.5h-5.9v-8.8h1.9V186.1z"/>
	<path class="st4" d="M184.6,187.7h-2l3.4-8.8h1.9l3.4,8.8h-2l-0.6-1.6v0h-3.5v0L184.6,187.7z M186.9,180.9l-1.2,3.5h2.4
		L186.9,180.9z"/>
	<path class="st4" d="M193.2,184.9c0.2,0.8,0.8,1.2,1.6,1.2c0.8,0,1.3-0.3,1.3-0.9c0-0.4-0.3-0.7-1-0.9l-1-0.3
		c-1.5-0.5-2.2-1.4-2.2-2.6c0-0.8,0.3-1.4,0.8-1.9s1.3-0.7,2.1-0.7c1.4,0,2.4,0.7,2.9,1.9l-1.6,0.8c-0.3-0.7-0.7-1-1.4-1
		c-0.6,0-1.1,0.3-1.1,0.8c0,0.4,0.3,0.7,0.9,0.9l0.9,0.3c1.5,0.5,2.3,1.3,2.3,2.6c0,0.9-0.3,1.5-0.9,2c-0.6,0.5-1.4,0.7-2.2,0.7
		c-0.9,0-1.6-0.2-2.3-0.7c-0.7-0.5-1-1.1-1.1-1.9L193.2,184.9z"/>
	<path class="st4" d="M204.6,187.7h-1.9v-8.8h3.9c0.9,0,1.6,0.3,2.1,0.8s0.8,1.2,0.8,2c0,0.8-0.3,1.5-0.8,2
		c-0.5,0.5-1.2,0.8-2.1,0.8h-1.9V187.7z M204.6,183h1.7c0.7,0,1.1-0.5,1.1-1.3c0-0.8-0.4-1.3-1.1-1.3h-1.7V183z"/>
	<path class="st4" d="M216.6,187.7h-5.8v-8.8h5.8v1.5h-3.9v2.2h3.4v1.5h-3.4v2h3.9V187.7z"/>
	<path class="st4" d="M223,184.4c0.3,1.1,0.7,1.7,1.5,1.7c0.3,0,0.6-0.1,0.9-0.4l0.7,1.3c-0.7,0.5-1.1,0.8-2,0.8
		c-1.2,0-2-0.8-2.4-1.7c-0.3-0.6-0.4-1.1-0.4-1.5h-1.2v3.1h-1.9v-8.8h3.9c0.9,0,1.6,0.3,2.1,0.8c0.5,0.6,0.7,1.2,0.7,2.1
		C224.9,183,224.2,184,223,184.4z M220.1,183h1.7c0.7,0,1.1-0.5,1.1-1.2c0-0.8-0.4-1.2-1.1-1.2h-1.7V183z"/>
	<path class="st4" d="M228.1,184.9c0.2,0.8,0.8,1.2,1.6,1.2c0.8,0,1.3-0.3,1.3-0.9c0-0.4-0.3-0.7-1-0.9l-1-0.3
		c-1.5-0.5-2.2-1.4-2.2-2.6c0-0.8,0.3-1.4,0.8-1.9s1.3-0.7,2.1-0.7c1.4,0,2.4,0.7,2.9,1.9l-1.6,0.8c-0.3-0.7-0.7-1-1.4-1
		c-0.6,0-1.1,0.3-1.1,0.8c0,0.4,0.3,0.7,0.9,0.9l0.9,0.3c1.5,0.5,2.3,1.3,2.3,2.6c0,0.9-0.3,1.5-0.9,2c-0.6,0.5-1.4,0.7-2.2,0.7
		c-0.9,0-1.6-0.2-2.3-0.7c-0.7-0.5-1-1.1-1.1-1.9L228.1,184.9z"/>
	<path class="st4" d="M233.9,183.3c0-1.2,0.5-2.3,1.3-3.2s2-1.3,3.2-1.3c1.3,0,2.3,0.4,3.2,1.3s1.3,2,1.3,3.2s-0.4,2.3-1.3,3.2
		s-2,1.3-3.2,1.3c-1.3,0-2.3-0.4-3.2-1.3S233.9,184.5,233.9,183.3z M235.8,183.3c0,0.8,0.3,1.5,0.8,2c0.5,0.5,1.1,0.8,1.9,0.8
		c0.7,0,1.4-0.3,1.9-0.8c0.5-0.5,0.8-1.2,0.8-2s-0.3-1.5-0.8-2c-0.5-0.5-1.1-0.8-1.9-0.8c-0.7,0-1.4,0.3-1.9,0.8
		C236.1,181.8,235.8,182.5,235.8,183.3z"/>
	<path class="st4" d="M250.4,187.7l-3.9-5.3v5.3h-1.9v-8.8h1.5l3.9,5.3v-5.3h1.9v8.8H250.4z"/>
	<path class="st4" d="M255,187.7h-2l3.4-8.8h1.9l3.4,8.8h-2L259,186v0h-3.5v0L255,187.7z M257.3,180.9l-1.2,3.5h2.4L257.3,180.9z"/>
	<path class="st4" d="M263.7,184.9c0.2,0.8,0.8,1.2,1.6,1.2c0.8,0,1.3-0.3,1.3-0.9c0-0.4-0.3-0.7-1-0.9l-1-0.3
		c-1.5-0.5-2.2-1.4-2.2-2.6c0-0.8,0.3-1.4,0.8-1.9s1.3-0.7,2.1-0.7c1.4,0,2.4,0.7,2.9,1.9l-1.6,0.8c-0.3-0.7-0.7-1-1.4-1
		c-0.6,0-1.1,0.3-1.1,0.8c0,0.4,0.3,0.7,0.9,0.9l0.9,0.3c1.5,0.5,2.3,1.3,2.3,2.6c0,0.9-0.3,1.5-0.9,2c-0.6,0.5-1.4,0.7-2.2,0.7
		c-0.9,0-1.6-0.2-2.3-0.7c-0.7-0.5-1-1.1-1.1-1.9L263.7,184.9z"/>
</g>
</svg>
